<svg version="1.0" xmlns="http://www.w3.org/2000/svg"
 width="24" height="21" viewBox="0 0 64 64"
 preserveAspectRatio="xMidYMid meet">
  <g transform="translate(0.000000,64.000000) scale(0.100000,-0.100000)"
  fill="none" stroke="none">
    <path  d="M52 628 c-7 -7 -12 -36 -12 -65 0 -68 29 -103 85 -103 35 0 85 35 85 58 0 5 9 12 20 15 26 7 26 27 0 34 -13 3 -20 14 -20 29 0 13 -9 28 -19 34 -27 14 -124 13 -139 -2z" fill="#333548" fill-opacity="0.75"/>
    <path  d="M22 414 c-20 -14 -22 -24 -22 -97 0 -56 5 -89 15 -103 9 -14 15 -53 17 -115 l3 -94 87 -3 88 -3 0 99 c0 76 4 102 15 112 22 18 21 182 -1 204 -22 22 -170 22 -202 0z" fill="#333548" fill-opacity="0.75"/>
    <path opacity="0.4" d="M360 411 c-12 -23 -13 -150 -2 -169 6 -9 34 -12 103 -10 l94 3 3 92 c3 91 2 93 -22 99 -38 9 -61 1 -64 -24 -4 -29 -20 -28 -32 3 -12 32 -64 35 -80 6z" fill="#333548" fill-opacity="0.75"/>
    <path  d="M274 187 c-3 -8 -4 -52 -2 -98 l3 -84 80 0 80 0 0 95 0 95 -32 3 c-28 3 -33 0 -33 -17 0 -12 -7 -21 -15 -21 -8 0 -15 9 -15 20 0 16 -7 20 -30 20 -17 0 -33 -6 -36 -13z" fill="#333548" fill-opacity="0.75"/>
    <path  d="M480 100 l0 -101 78 3 77 3 0 95 0 95 -26 3 c-20 2 -28 -2 -32 -17 -7 -27 -37 -28 -37 -1 0 16 -7 20 -30 20 l-30 0 0 -100z" fill="#333548" fill-opacity="0.75"/>
  </g>
</svg>
